<mxfile host="app.diagrams.net" modified="2023-06-23T08:31:07.618Z" agent="Mozilla/5.0 (Windows NT 10.0; Win64; x64) AppleWebKit/537.36 (KHTML, like Gecko) Chrome/114.0.0.0 Safari/537.36" etag="ZCV1-kMc4sSxLpvcRAnc" version="21.5.0" type="device">
  <diagram name="페이지-1" id="sCeh7js2PacDHhThQP-2">
    <mxGraphModel dx="683" dy="364" grid="1" gridSize="10" guides="1" tooltips="1" connect="1" arrows="1" fold="1" page="1" pageScale="1" pageWidth="827" pageHeight="1169" math="0" shadow="0">
      <root>
        <mxCell id="0" />
        <mxCell id="1" parent="0" />
        <mxCell id="u32HJfG-j2qVjE7ilr1I-1" value="회원&lt;br&gt;(로그인O)" style="shape=umlActor;verticalLabelPosition=bottom;verticalAlign=top;html=1;" vertex="1" parent="1">
          <mxGeometry x="30" y="45" width="30" height="60" as="geometry" />
        </mxCell>
        <mxCell id="u32HJfG-j2qVjE7ilr1I-4" value="Q&amp;amp;A&lt;br&gt;게시판 조회" style="ellipse;whiteSpace=wrap;html=1;" vertex="1" parent="1">
          <mxGeometry x="100" y="50" width="80" height="50" as="geometry" />
        </mxCell>
        <mxCell id="u32HJfG-j2qVjE7ilr1I-5" value="게시글&lt;br&gt;작성" style="ellipse;whiteSpace=wrap;html=1;" vertex="1" parent="1">
          <mxGeometry x="210" y="10" width="50" height="50" as="geometry" />
        </mxCell>
        <mxCell id="u32HJfG-j2qVjE7ilr1I-6" value="게시글 &lt;br&gt;수정" style="ellipse;whiteSpace=wrap;html=1;" vertex="1" parent="1">
          <mxGeometry x="310" y="70" width="60" height="50" as="geometry" />
        </mxCell>
        <mxCell id="u32HJfG-j2qVjE7ilr1I-7" value="내 게시글&lt;br&gt;조회" style="ellipse;whiteSpace=wrap;html=1;" vertex="1" parent="1">
          <mxGeometry x="210" y="100" width="72" height="60" as="geometry" />
        </mxCell>
        <mxCell id="u32HJfG-j2qVjE7ilr1I-9" value="게시글&lt;br&gt;삭제" style="ellipse;whiteSpace=wrap;html=1;" vertex="1" parent="1">
          <mxGeometry x="310" y="140" width="60" height="50" as="geometry" />
        </mxCell>
        <mxCell id="u32HJfG-j2qVjE7ilr1I-14" value="Q&amp;amp;A&lt;br&gt;게시판 조회" style="ellipse;whiteSpace=wrap;html=1;" vertex="1" parent="1">
          <mxGeometry x="420" y="50" width="80" height="50" as="geometry" />
        </mxCell>
        <mxCell id="u32HJfG-j2qVjE7ilr1I-16" value="" style="endArrow=open;endFill=1;endSize=12;html=1;rounded=0;" edge="1" parent="1" source="u32HJfG-j2qVjE7ilr1I-1" target="u32HJfG-j2qVjE7ilr1I-4">
          <mxGeometry width="160" relative="1" as="geometry">
            <mxPoint x="60" y="70" as="sourcePoint" />
            <mxPoint x="350" y="120" as="targetPoint" />
          </mxGeometry>
        </mxCell>
        <mxCell id="u32HJfG-j2qVjE7ilr1I-17" value="" style="endArrow=open;endFill=1;endSize=12;html=1;rounded=0;exitX=0.909;exitY=0.177;exitDx=0;exitDy=0;entryX=0;entryY=0.5;entryDx=0;entryDy=0;exitPerimeter=0;" edge="1" parent="1" source="u32HJfG-j2qVjE7ilr1I-4" target="u32HJfG-j2qVjE7ilr1I-5">
          <mxGeometry width="160" relative="1" as="geometry">
            <mxPoint x="70" y="80" as="sourcePoint" />
            <mxPoint x="110" y="83" as="targetPoint" />
          </mxGeometry>
        </mxCell>
        <mxCell id="u32HJfG-j2qVjE7ilr1I-18" value="" style="endArrow=open;endFill=1;endSize=12;html=1;rounded=0;exitX=1;exitY=1;exitDx=0;exitDy=0;entryX=-0.022;entryY=0.386;entryDx=0;entryDy=0;entryPerimeter=0;" edge="1" parent="1" source="u32HJfG-j2qVjE7ilr1I-4" target="u32HJfG-j2qVjE7ilr1I-7">
          <mxGeometry width="160" relative="1" as="geometry">
            <mxPoint x="183" y="69" as="sourcePoint" />
            <mxPoint x="220" y="45" as="targetPoint" />
          </mxGeometry>
        </mxCell>
        <mxCell id="u32HJfG-j2qVjE7ilr1I-19" value="" style="endArrow=open;endFill=1;endSize=12;html=1;rounded=0;exitX=1;exitY=0.5;exitDx=0;exitDy=0;" edge="1" parent="1" source="u32HJfG-j2qVjE7ilr1I-5" target="u32HJfG-j2qVjE7ilr1I-14">
          <mxGeometry width="160" relative="1" as="geometry">
            <mxPoint x="178" y="103" as="sourcePoint" />
            <mxPoint x="216" y="137" as="targetPoint" />
          </mxGeometry>
        </mxCell>
        <mxCell id="u32HJfG-j2qVjE7ilr1I-20" value="" style="endArrow=open;endFill=1;endSize=12;html=1;rounded=0;exitX=0.934;exitY=0.225;exitDx=0;exitDy=0;entryX=0;entryY=0.5;entryDx=0;entryDy=0;exitPerimeter=0;" edge="1" parent="1" source="u32HJfG-j2qVjE7ilr1I-7" target="u32HJfG-j2qVjE7ilr1I-6">
          <mxGeometry width="160" relative="1" as="geometry">
            <mxPoint x="190" y="120" as="sourcePoint" />
            <mxPoint x="350" y="120" as="targetPoint" />
          </mxGeometry>
        </mxCell>
        <mxCell id="u32HJfG-j2qVjE7ilr1I-21" value="" style="endArrow=open;endFill=1;endSize=12;html=1;rounded=0;exitX=1;exitY=1;exitDx=0;exitDy=0;entryX=0;entryY=0.5;entryDx=0;entryDy=0;" edge="1" parent="1" source="u32HJfG-j2qVjE7ilr1I-7" target="u32HJfG-j2qVjE7ilr1I-9">
          <mxGeometry width="160" relative="1" as="geometry">
            <mxPoint x="190" y="120" as="sourcePoint" />
            <mxPoint x="350" y="120" as="targetPoint" />
          </mxGeometry>
        </mxCell>
        <mxCell id="u32HJfG-j2qVjE7ilr1I-22" value="" style="endArrow=open;endFill=1;endSize=12;html=1;rounded=0;exitX=1;exitY=0.5;exitDx=0;exitDy=0;" edge="1" parent="1" source="u32HJfG-j2qVjE7ilr1I-6" target="u32HJfG-j2qVjE7ilr1I-14">
          <mxGeometry width="160" relative="1" as="geometry">
            <mxPoint x="190" y="120" as="sourcePoint" />
            <mxPoint x="350" y="120" as="targetPoint" />
          </mxGeometry>
        </mxCell>
        <mxCell id="u32HJfG-j2qVjE7ilr1I-23" value="" style="endArrow=open;endFill=1;endSize=12;html=1;rounded=0;exitX=1;exitY=0.5;exitDx=0;exitDy=0;entryX=0.5;entryY=1;entryDx=0;entryDy=0;" edge="1" parent="1" source="u32HJfG-j2qVjE7ilr1I-9" target="u32HJfG-j2qVjE7ilr1I-14">
          <mxGeometry width="160" relative="1" as="geometry">
            <mxPoint x="190" y="120" as="sourcePoint" />
            <mxPoint x="350" y="120" as="targetPoint" />
          </mxGeometry>
        </mxCell>
        <mxCell id="u32HJfG-j2qVjE7ilr1I-24" value="일반 사용자&lt;br&gt;(로그인 X)" style="shape=umlActor;verticalLabelPosition=bottom;verticalAlign=top;html=1;" vertex="1" parent="1">
          <mxGeometry x="30" y="355" width="30" height="60" as="geometry" />
        </mxCell>
        <mxCell id="u32HJfG-j2qVjE7ilr1I-25" value="Q&amp;amp;A&lt;br&gt;게시판 조회" style="ellipse;whiteSpace=wrap;html=1;" vertex="1" parent="1">
          <mxGeometry x="100" y="360" width="80" height="50" as="geometry" />
        </mxCell>
        <mxCell id="u32HJfG-j2qVjE7ilr1I-26" value="로그인" style="ellipse;whiteSpace=wrap;html=1;" vertex="1" parent="1">
          <mxGeometry x="210" y="320" width="50" height="50" as="geometry" />
        </mxCell>
        <mxCell id="u32HJfG-j2qVjE7ilr1I-28" value="공개글&lt;br&gt;조회" style="ellipse;whiteSpace=wrap;html=1;" vertex="1" parent="1">
          <mxGeometry x="200" y="410" width="60" height="50" as="geometry" />
        </mxCell>
        <mxCell id="u32HJfG-j2qVjE7ilr1I-30" value="Q&amp;amp;A&lt;br&gt;게시판 조회" style="ellipse;whiteSpace=wrap;html=1;" vertex="1" parent="1">
          <mxGeometry x="420" y="360" width="80" height="50" as="geometry" />
        </mxCell>
        <mxCell id="u32HJfG-j2qVjE7ilr1I-31" value="" style="endArrow=open;endFill=1;endSize=12;html=1;rounded=0;" edge="1" source="u32HJfG-j2qVjE7ilr1I-24" target="u32HJfG-j2qVjE7ilr1I-25" parent="1">
          <mxGeometry width="160" relative="1" as="geometry">
            <mxPoint x="60" y="380" as="sourcePoint" />
            <mxPoint x="350" y="430" as="targetPoint" />
          </mxGeometry>
        </mxCell>
        <mxCell id="u32HJfG-j2qVjE7ilr1I-32" value="" style="endArrow=open;endFill=1;endSize=12;html=1;rounded=0;exitX=0.909;exitY=0.177;exitDx=0;exitDy=0;entryX=0;entryY=0.5;entryDx=0;entryDy=0;exitPerimeter=0;" edge="1" source="u32HJfG-j2qVjE7ilr1I-25" target="u32HJfG-j2qVjE7ilr1I-26" parent="1">
          <mxGeometry width="160" relative="1" as="geometry">
            <mxPoint x="70" y="390" as="sourcePoint" />
            <mxPoint x="110" y="393" as="targetPoint" />
          </mxGeometry>
        </mxCell>
        <mxCell id="u32HJfG-j2qVjE7ilr1I-33" value="" style="endArrow=open;endFill=1;endSize=12;html=1;rounded=0;exitX=1;exitY=1;exitDx=0;exitDy=0;entryX=0;entryY=0.4;entryDx=0;entryDy=0;entryPerimeter=0;" edge="1" source="u32HJfG-j2qVjE7ilr1I-25" target="u32HJfG-j2qVjE7ilr1I-28" parent="1">
          <mxGeometry width="160" relative="1" as="geometry">
            <mxPoint x="183" y="379" as="sourcePoint" />
            <mxPoint x="220" y="355" as="targetPoint" />
          </mxGeometry>
        </mxCell>
        <mxCell id="u32HJfG-j2qVjE7ilr1I-34" value="" style="endArrow=open;endFill=1;endSize=12;html=1;rounded=0;exitX=1;exitY=0.5;exitDx=0;exitDy=0;" edge="1" source="u32HJfG-j2qVjE7ilr1I-42" target="u32HJfG-j2qVjE7ilr1I-30" parent="1">
          <mxGeometry width="160" relative="1" as="geometry">
            <mxPoint x="400" y="340" as="sourcePoint" />
            <mxPoint x="216" y="447" as="targetPoint" />
          </mxGeometry>
        </mxCell>
        <mxCell id="u32HJfG-j2qVjE7ilr1I-42" value="게시글&lt;br&gt;작성" style="ellipse;whiteSpace=wrap;html=1;" vertex="1" parent="1">
          <mxGeometry x="310" y="320" width="50" height="50" as="geometry" />
        </mxCell>
        <mxCell id="u32HJfG-j2qVjE7ilr1I-43" value="" style="endArrow=open;endFill=1;endSize=12;html=1;rounded=0;exitX=1;exitY=0.5;exitDx=0;exitDy=0;entryX=0;entryY=0.5;entryDx=0;entryDy=0;" edge="1" parent="1" source="u32HJfG-j2qVjE7ilr1I-26" target="u32HJfG-j2qVjE7ilr1I-42">
          <mxGeometry width="160" relative="1" as="geometry">
            <mxPoint x="190" y="320" as="sourcePoint" />
            <mxPoint x="350" y="320" as="targetPoint" />
          </mxGeometry>
        </mxCell>
        <mxCell id="u32HJfG-j2qVjE7ilr1I-44" value="공개글 &lt;br&gt;조회" style="ellipse;whiteSpace=wrap;html=1;" vertex="1" parent="1">
          <mxGeometry x="200" y="190" width="58.33" height="50" as="geometry" />
        </mxCell>
        <mxCell id="u32HJfG-j2qVjE7ilr1I-45" value="" style="endArrow=open;endFill=1;endSize=12;html=1;rounded=0;exitX=0.5;exitY=1;exitDx=0;exitDy=0;" edge="1" parent="1" source="u32HJfG-j2qVjE7ilr1I-4" target="u32HJfG-j2qVjE7ilr1I-44">
          <mxGeometry width="160" relative="1" as="geometry">
            <mxPoint x="190" y="170" as="sourcePoint" />
            <mxPoint x="350" y="170" as="targetPoint" />
          </mxGeometry>
        </mxCell>
        <mxCell id="u32HJfG-j2qVjE7ilr1I-57" value="판매자&lt;br&gt;(로그인 O)" style="shape=umlActor;verticalLabelPosition=bottom;verticalAlign=top;html=1;" vertex="1" parent="1">
          <mxGeometry x="30" y="525" width="30" height="60" as="geometry" />
        </mxCell>
        <mxCell id="u32HJfG-j2qVjE7ilr1I-58" value="Q&amp;amp;A&lt;br&gt;게시판 조회" style="ellipse;whiteSpace=wrap;html=1;" vertex="1" parent="1">
          <mxGeometry x="100" y="530" width="80" height="50" as="geometry" />
        </mxCell>
        <mxCell id="u32HJfG-j2qVjE7ilr1I-60" value="답변 &lt;br&gt;작성" style="ellipse;whiteSpace=wrap;html=1;" vertex="1" parent="1">
          <mxGeometry x="330" y="470" width="60" height="50" as="geometry" />
        </mxCell>
        <mxCell id="u32HJfG-j2qVjE7ilr1I-61" value="게시글 &lt;br&gt;조회" style="ellipse;whiteSpace=wrap;html=1;" vertex="1" parent="1">
          <mxGeometry x="210" y="530" width="72" height="60" as="geometry" />
        </mxCell>
        <mxCell id="u32HJfG-j2qVjE7ilr1I-62" value="답변&lt;br&gt;삭제" style="ellipse;whiteSpace=wrap;html=1;" vertex="1" parent="1">
          <mxGeometry x="330" y="600" width="60" height="50" as="geometry" />
        </mxCell>
        <mxCell id="u32HJfG-j2qVjE7ilr1I-63" value="Q&amp;amp;A&lt;br&gt;게시판 조회" style="ellipse;whiteSpace=wrap;html=1;" vertex="1" parent="1">
          <mxGeometry x="420" y="530" width="80" height="50" as="geometry" />
        </mxCell>
        <mxCell id="u32HJfG-j2qVjE7ilr1I-64" value="" style="endArrow=open;endFill=1;endSize=12;html=1;rounded=0;" edge="1" source="u32HJfG-j2qVjE7ilr1I-57" target="u32HJfG-j2qVjE7ilr1I-58" parent="1">
          <mxGeometry width="160" relative="1" as="geometry">
            <mxPoint x="60" y="550" as="sourcePoint" />
            <mxPoint x="350" y="600" as="targetPoint" />
          </mxGeometry>
        </mxCell>
        <mxCell id="u32HJfG-j2qVjE7ilr1I-66" value="" style="endArrow=open;endFill=1;endSize=12;html=1;rounded=0;exitX=1;exitY=0.5;exitDx=0;exitDy=0;entryX=-0.035;entryY=0.433;entryDx=0;entryDy=0;entryPerimeter=0;" edge="1" source="u32HJfG-j2qVjE7ilr1I-58" target="u32HJfG-j2qVjE7ilr1I-61" parent="1">
          <mxGeometry width="160" relative="1" as="geometry">
            <mxPoint x="183" y="549" as="sourcePoint" />
            <mxPoint x="220" y="525" as="targetPoint" />
          </mxGeometry>
        </mxCell>
        <mxCell id="u32HJfG-j2qVjE7ilr1I-68" value="" style="endArrow=open;endFill=1;endSize=12;html=1;rounded=0;exitX=0.934;exitY=0.225;exitDx=0;exitDy=0;entryX=0;entryY=0.5;entryDx=0;entryDy=0;exitPerimeter=0;" edge="1" source="u32HJfG-j2qVjE7ilr1I-61" target="u32HJfG-j2qVjE7ilr1I-60" parent="1">
          <mxGeometry width="160" relative="1" as="geometry">
            <mxPoint x="190" y="600" as="sourcePoint" />
            <mxPoint x="350" y="600" as="targetPoint" />
          </mxGeometry>
        </mxCell>
        <mxCell id="u32HJfG-j2qVjE7ilr1I-69" value="" style="endArrow=open;endFill=1;endSize=12;html=1;rounded=0;exitX=1;exitY=1;exitDx=0;exitDy=0;entryX=0;entryY=0.5;entryDx=0;entryDy=0;" edge="1" source="u32HJfG-j2qVjE7ilr1I-61" target="u32HJfG-j2qVjE7ilr1I-62" parent="1">
          <mxGeometry width="160" relative="1" as="geometry">
            <mxPoint x="190" y="600" as="sourcePoint" />
            <mxPoint x="350" y="600" as="targetPoint" />
          </mxGeometry>
        </mxCell>
        <mxCell id="u32HJfG-j2qVjE7ilr1I-70" value="" style="endArrow=open;endFill=1;endSize=12;html=1;rounded=0;exitX=1;exitY=0.5;exitDx=0;exitDy=0;" edge="1" source="u32HJfG-j2qVjE7ilr1I-60" target="u32HJfG-j2qVjE7ilr1I-63" parent="1">
          <mxGeometry width="160" relative="1" as="geometry">
            <mxPoint x="190" y="600" as="sourcePoint" />
            <mxPoint x="350" y="600" as="targetPoint" />
          </mxGeometry>
        </mxCell>
        <mxCell id="u32HJfG-j2qVjE7ilr1I-71" value="" style="endArrow=open;endFill=1;endSize=12;html=1;rounded=0;exitX=1;exitY=0.5;exitDx=0;exitDy=0;entryX=0.23;entryY=0.93;entryDx=0;entryDy=0;entryPerimeter=0;" edge="1" source="u32HJfG-j2qVjE7ilr1I-62" target="u32HJfG-j2qVjE7ilr1I-63" parent="1">
          <mxGeometry width="160" relative="1" as="geometry">
            <mxPoint x="190" y="600" as="sourcePoint" />
            <mxPoint x="440" y="580" as="targetPoint" />
          </mxGeometry>
        </mxCell>
        <mxCell id="u32HJfG-j2qVjE7ilr1I-74" value="답변 &lt;br&gt;수정" style="ellipse;whiteSpace=wrap;html=1;" vertex="1" parent="1">
          <mxGeometry x="330" y="534" width="60" height="50" as="geometry" />
        </mxCell>
        <mxCell id="u32HJfG-j2qVjE7ilr1I-75" value="" style="endArrow=open;endFill=1;endSize=12;html=1;rounded=0;exitX=1;exitY=0.5;exitDx=0;exitDy=0;" edge="1" parent="1" source="u32HJfG-j2qVjE7ilr1I-61" target="u32HJfG-j2qVjE7ilr1I-74">
          <mxGeometry width="160" relative="1" as="geometry">
            <mxPoint x="190" y="550" as="sourcePoint" />
            <mxPoint x="350" y="550" as="targetPoint" />
          </mxGeometry>
        </mxCell>
        <mxCell id="u32HJfG-j2qVjE7ilr1I-76" value="" style="endArrow=open;endFill=1;endSize=12;html=1;rounded=0;" edge="1" parent="1">
          <mxGeometry width="160" relative="1" as="geometry">
            <mxPoint x="390" y="558.76" as="sourcePoint" />
            <mxPoint x="420" y="559" as="targetPoint" />
          </mxGeometry>
        </mxCell>
      </root>
    </mxGraphModel>
  </diagram>
</mxfile>
